<?xml version="1.0" encoding="iso-8859-1"?>
<!-- Generator: Adobe Illustrator 19.0.0, SVG Export Plug-In . SVG Version: 6.00 Build 0)  -->
<svg version="1.1" id="Layer_1" xmlns="http://www.w3.org/2000/svg" xmlns:xlink="http://www.w3.org/1999/xlink" x="0px" y="0px"
	 viewBox="0 0 511.988 511.988" style="enable-background:new 0 0 511.988 511.988;" xml:space="preserve">
<g>
	<path style="fill:#CCD1D9;" d="M127.997,195.109c-5.891,0-10.672,4.773-10.672,10.672v12.039c0,5.89,4.781,10.664,10.672,10.664
		s10.672-4.773,10.672-10.664v-12.039C138.669,199.882,133.888,195.109,127.997,195.109z"/>
	<path style="fill:#CCD1D9;" d="M63.998,226.998c-5.89,0-10.671,4.773-10.671,10.664v12.617c0,5.891,4.781,10.664,10.671,10.664
		c5.891,0,10.672-4.773,10.672-10.664v-12.617C74.67,231.772,69.889,226.998,63.998,226.998z"/>
	<path style="fill:#CCD1D9;" d="M383.993,195.109c-5.891,0-10.672,4.773-10.672,10.672v12.039c0,5.89,4.781,10.664,10.672,10.664
		s10.671-4.773,10.671-10.664v-12.039C394.664,199.882,389.884,195.109,383.993,195.109z"/>
	<path style="fill:#CCD1D9;" d="M447.991,226.998c-5.891,0-10.672,4.773-10.672,10.664v12.617c0,5.891,4.781,10.664,10.672,10.664
		s10.672-4.773,10.672-10.664v-12.617C458.663,231.772,453.882,226.998,447.991,226.998z"/>
</g>
<g>
	<path style="fill:#E6E9ED;" d="M10.672,341.34c-2.438,0-4.812-0.844-6.734-2.406C1.454,336.903,0,333.872,0,330.653v-42.654
		c0-4.016,2.266-7.688,5.844-9.516l202.668-102.795c5.25-2.664,11.671-0.57,14.328,4.688c2.672,5.25,0.562,11.672-4.688,14.336
		l-4.437,82.85c5.765-1.203,11.406,2.5,12.609,8.266s-2.5,11.422-8.266,12.609l-205.215,42.67
		C12.125,341.246,11.391,341.34,10.672,341.34z"/>
	<path style="fill:#E6E9ED;" d="M501.318,341.34c-0.719,0-1.438-0.094-2.172-0.234l-205.215-42.67
		c-5.765-1.188-9.468-6.844-8.265-12.609s6.843-9.469,12.608-8.266l-4.438-82.85c-5.249-2.664-7.358-9.086-4.687-14.336
		c2.655-5.258,9.077-7.352,14.343-4.688l202.652,102.795c3.594,1.828,5.844,5.5,5.844,9.516v42.654c0,3.219-1.438,6.25-3.938,8.281
		C506.131,340.496,503.756,341.34,501.318,341.34z"/>
</g>
<g>
	<path style="fill:#4A89DC;" d="M225.808,374.465c-3.5-1.75-7.688-1.469-10.906,0.781l-61.015,42.67
		c-2.859,2-4.562,5.266-4.562,8.734v42.688c0,3.438,1.656,6.656,4.453,8.656c1.844,1.312,4.016,2,6.219,2
		c1.156,0,2.312-0.188,3.422-0.562l62.889-21.344c4.438-1.5,7.375-5.719,7.234-10.406l-1.859-63.998
		C231.574,379.777,229.308,376.215,225.808,374.465z"/>
	<path style="fill:#4A89DC;" d="M358.102,417.916l-61.015-42.67c-3.219-2.25-7.405-2.531-10.905-0.781s-5.766,5.312-5.875,9.219
		l-1.859,63.998c-0.141,4.688,2.797,8.906,7.234,10.406l62.889,21.344c1.109,0.375,2.266,0.562,3.422,0.562
		c2.203,0,4.375-0.688,6.219-2c2.797-2,4.453-5.219,4.453-8.656V426.65C362.665,423.182,360.962,419.916,358.102,417.916z"/>
</g>
<path style="fill:#5D9CEC;" d="M287.511,479.994h-64c-5.766,0-10.484-4.578-10.656-10.344
	c-0.438-14.375-10.672-352.399-10.672-373.649c0-13.344,5.047-31.078,12.875-45.179c10.562-19.015,24.937-29.484,40.453-29.484
	s29.891,10.469,40.437,29.484c7.828,14.101,12.891,31.835,12.891,45.179c0,21.25-10.234,359.274-10.672,373.649
	C297.994,475.416,293.275,479.994,287.511,479.994z"/>
<path style="fill:#F5F7FA;" d="M286.823,92.228c-0.469-1.234-2.375-5.586-7.297-9.727c-4.25-3.57-11.859-7.836-24.016-7.836
	c-19.484,0-28.843,11.039-31.312,17.562c-2.078,5.516,0.703,11.672,6.203,13.75c1.25,0.469,2.516,0.695,3.766,0.695
	c4.156,0,8.078-2.445,9.812-6.453C244.354,99.563,246.791,96,255.51,96c8.719,0,11.156,3.562,11.531,4.219
	c2.25,5.211,8.219,7.781,13.578,5.757C286.12,103.892,288.901,97.736,286.823,92.228z"/>
<path style="fill:#4A89DC;" d="M255.511,490.65c-5.891,0-10.672-4.766-10.672-10.656V405.34c0-5.906,4.781-10.688,10.672-10.688
	c5.891,0,10.672,4.781,10.672,10.688v74.654C266.183,485.885,261.401,490.65,255.511,490.65z"/>
<g>
</g>
<g>
</g>
<g>
</g>
<g>
</g>
<g>
</g>
<g>
</g>
<g>
</g>
<g>
</g>
<g>
</g>
<g>
</g>
<g>
</g>
<g>
</g>
<g>
</g>
<g>
</g>
<g>
</g>
</svg>
